<?xml version="1.0" encoding="UTF-8"?><svg xmlns="http://www.w3.org/2000/svg" xmlns:xlink="http://www.w3.org/1999/xlink" contentScriptType="application/ecmascript" contentStyleType="text/css" height="345px" preserveAspectRatio="none" style="width:1443px;height:345px;" version="1.1" viewBox="0 0 1443 345" width="1443px" zoomAndPan="magnify">
    <defs>
        <filter height="300%" id="fonvhfwm4zwbu" width="300%" x="-1" y="-1">
            <feGaussianBlur result="blurOut" stdDeviation="2.0"/>
            <feColorMatrix in="blurOut" result="blurOut2" type="matrix" values="0 0 0 0 0 0 0 0 0 0 0 0 0 0 0 0 0 0 .4 0"/>
            <feOffset dx="4.0" dy="4.0" in="blurOut2" result="blurOut3"/>
            <feBlend in="SourceGraphic" in2="blurOut3" mode="normal"/>
        </filter>
    </defs>
    <g>
        <!--MD5=[f3202dc711b71bd05273068681172717]
cluster clinicamedica-->
        <polygon fill="#FFFFFF" filter="url(#fonvhfwm4zwbu)" points="16,6,117,6,124,29.6094,996,29.6094,996,338,16,338,16,6" style="stroke:#000000;stroke-width:1.5;"/>
        <line style="stroke:#000000;stroke-width:1.5;" x1="16" x2="124" y1="29.6094" y2="29.6094"/>
        <text fill="#000000" font-family="sans-serif" font-size="14" font-weight="bold" lengthAdjust="spacing" textLength="95" x="20" y="22.5332">clinicamedica</text>
        <!--MD5=[aa8f7b917213fcc1c2766e2d59b49067]
cluster java.lang-->
        <polygon fill="#FFFFFF" filter="url(#fonvhfwm4zwbu)" points="1314,238,1383,238,1390,261.6094,1424,261.6094,1424,338,1314,338,1314,238" style="stroke:#000000;stroke-width:1.5;"/>
        <line style="stroke:#000000;stroke-width:1.5;" x1="1314" x2="1390" y1="261.6094" y2="261.6094"/>
        <text fill="#000000" font-family="sans-serif" font-size="14" font-weight="bold" lengthAdjust="spacing" textLength="63" x="1318" y="254.5332">java.lang</text>
        <!--MD5=[7db3c59d38ae5b37b484eb2df9368145]
cluster java.util-->
        <polygon fill="#FFFFFF" filter="url(#fonvhfwm4zwbu)" points="1020,114,1081,114,1088,137.6094,1332,137.6094,1332,214,1020,214,1020,114" style="stroke:#000000;stroke-width:1.5;"/>
        <line style="stroke:#000000;stroke-width:1.5;" x1="1020" x2="1088" y1="137.6094" y2="137.6094"/>
        <text fill="#000000" font-family="sans-serif" font-size="14" font-weight="bold" lengthAdjust="spacing" textLength="55" x="1024" y="130.5332">java.util</text>
        <!--MD5=[9ccfa7aad7f05d0881396a21aad87046]
class clinicamedica.Cargos-->
        <rect codeLine="1" fill="#FEFECE" filter="url(#fonvhfwm4zwbu)" height="48" id="clinicamedica.Cargos" style="stroke:#A80036;stroke-width:1.5;" width="72" x="593" y="274"/>
        <ellipse cx="608" cy="290" fill="#A9DCDF" rx="11" ry="11" style="stroke:#A80036;stroke-width:1.0;"/>
        <path d="M610.1875,291.7656 L606.0469,291.7656 L605.625,292.7969 L606.0469,292.7969 Q606.6563,292.7969 606.9219,293.0313 Q607.1875,293.2656 607.1875,293.6563 Q607.1875,294.0313 606.9219,294.2656 Q606.6563,294.5 606.0469,294.5 L603.75,294.5 Q603.1406,294.5 602.8828,294.2656 Q602.625,294.0313 602.625,293.6406 Q602.625,293.2656 602.8984,293.0234 Q603.1719,292.7813 603.7969,292.7969 L606.4688,286.1406 L605.3594,286.1406 Q604.75,286.1406 604.4844,285.9063 Q604.2188,285.6719 604.2188,285.2813 Q604.2188,284.9063 604.4844,284.6719 Q604.75,284.4375 605.3594,284.4375 L609.0313,284.4375 L612.4219,292.7969 Q613.0156,292.7969 613.2031,292.9375 Q613.5938,293.2031 613.5938,293.6563 Q613.5938,294.0313 613.3359,294.2656 Q613.0781,294.5 612.4688,294.5 L610.1719,294.5 Q609.5625,294.5 609.2969,294.2656 Q609.0313,294.0313 609.0313,293.6406 Q609.0313,293.2656 609.2969,293.0313 Q609.5625,292.7969 610.1719,292.7969 L610.5938,292.7969 L610.1875,291.7656 Z M609.4688,290.0625 L608.1094,286.6875 L606.7344,290.0625 L609.4688,290.0625 Z " fill="#000000"/>
        <text fill="#000000" font-family="sans-serif" font-size="12" font-style="italic" lengthAdjust="spacing" textLength="40" x="622" y="294.9102">Cargos</text>
        <line style="stroke:#A80036;stroke-width:1.5;" x1="594" x2="664" y1="306" y2="306"/>
        <line style="stroke:#A80036;stroke-width:1.5;" x1="594" x2="664" y1="314" y2="314"/>
        <!--MD5=[300619d4632e9fc440a995e5ac3f098e]
class clinicamedica.ClinicaMedica-->
        <rect codeLine="3" fill="#FEFECE" filter="url(#fonvhfwm4zwbu)" height="48" id="clinicamedica.ClinicaMedica" style="stroke:#A80036;stroke-width:1.5;" width="109" x="717.5" y="42"/>
        <ellipse cx="732.5" cy="58" fill="#ADD1B2" rx="11" ry="11" style="stroke:#A80036;stroke-width:1.0;"/>
        <path d="M735.2656,53.875 Q735.4219,53.6563 735.6094,53.5469 Q735.7969,53.4375 736.0156,53.4375 Q736.3906,53.4375 736.625,53.6953 Q736.8594,53.9531 736.8594,54.5625 L736.8594,56.0156 Q736.8594,56.625 736.625,56.8906 Q736.3906,57.1563 736.0156,57.1563 Q735.6719,57.1563 735.4688,56.9531 Q735.2656,56.7656 735.1563,56.25 Q735.1094,55.8906 734.9219,55.7031 Q734.5938,55.3281 733.9844,55.1094 Q733.375,54.8906 732.75,54.8906 Q731.9844,54.8906 731.3516,55.2188 Q730.7188,55.5469 730.2266,56.2969 Q729.7344,57.0469 729.7344,58.0781 L729.7344,59.1719 Q729.7344,60.4063 730.625,61.2266 Q731.5156,62.0469 733.1094,62.0469 Q734.0469,62.0469 734.7031,61.7969 Q735.0938,61.6406 735.5156,61.2031 Q735.7813,60.9375 735.9297,60.8594 Q736.0781,60.7813 736.2813,60.7813 Q736.6094,60.7813 736.8672,61.0391 Q737.125,61.2969 737.125,61.6406 Q737.125,61.9844 736.7813,62.3906 Q736.2813,62.9688 735.4844,63.2969 Q734.4063,63.75 733.1094,63.75 Q731.5938,63.75 730.3906,63.125 Q729.4063,62.625 728.7188,61.5547 Q728.0313,60.4844 728.0313,59.2031 L728.0313,58.0469 Q728.0313,56.7188 728.6484,55.5703 Q729.2656,54.4219 730.3594,53.8047 Q731.4531,53.1875 732.6875,53.1875 Q733.4219,53.1875 734.0703,53.3516 Q734.7188,53.5156 735.2656,53.875 Z " fill="#000000"/>
        <text fill="#000000" font-family="sans-serif" font-size="12" lengthAdjust="spacing" textLength="77" x="746.5" y="62.9102">ClinicaMedica</text>
        <line style="stroke:#A80036;stroke-width:1.5;" x1="718.5" x2="825.5" y1="74" y2="74"/>
        <line style="stroke:#A80036;stroke-width:1.5;" x1="718.5" x2="825.5" y1="82" y2="82"/>
        <!--MD5=[e5e1b3d0ea60cf93ac59c4c7696024df]
class clinicamedica.Consulta-->
        <rect codeLine="4" fill="#FEFECE" filter="url(#fonvhfwm4zwbu)" height="48" id="clinicamedica.Consulta" style="stroke:#A80036;stroke-width:1.5;" width="82" x="32" y="42"/>
        <ellipse cx="47" cy="58" fill="#ADD1B2" rx="11" ry="11" style="stroke:#A80036;stroke-width:1.0;"/>
        <path d="M49.7656,53.875 Q49.9219,53.6563 50.1094,53.5469 Q50.2969,53.4375 50.5156,53.4375 Q50.8906,53.4375 51.125,53.6953 Q51.3594,53.9531 51.3594,54.5625 L51.3594,56.0156 Q51.3594,56.625 51.125,56.8906 Q50.8906,57.1563 50.5156,57.1563 Q50.1719,57.1563 49.9688,56.9531 Q49.7656,56.7656 49.6563,56.25 Q49.6094,55.8906 49.4219,55.7031 Q49.0938,55.3281 48.4844,55.1094 Q47.875,54.8906 47.25,54.8906 Q46.4844,54.8906 45.8516,55.2188 Q45.2188,55.5469 44.7266,56.2969 Q44.2344,57.0469 44.2344,58.0781 L44.2344,59.1719 Q44.2344,60.4063 45.125,61.2266 Q46.0156,62.0469 47.6094,62.0469 Q48.5469,62.0469 49.2031,61.7969 Q49.5938,61.6406 50.0156,61.2031 Q50.2813,60.9375 50.4297,60.8594 Q50.5781,60.7813 50.7813,60.7813 Q51.1094,60.7813 51.3672,61.0391 Q51.625,61.2969 51.625,61.6406 Q51.625,61.9844 51.2813,62.3906 Q50.7813,62.9688 49.9844,63.2969 Q48.9063,63.75 47.6094,63.75 Q46.0938,63.75 44.8906,63.125 Q43.9063,62.625 43.2188,61.5547 Q42.5313,60.4844 42.5313,59.2031 L42.5313,58.0469 Q42.5313,56.7188 43.1484,55.5703 Q43.7656,54.4219 44.8594,53.8047 Q45.9531,53.1875 47.1875,53.1875 Q47.9219,53.1875 48.5703,53.3516 Q49.2188,53.5156 49.7656,53.875 Z " fill="#000000"/>
        <text fill="#000000" font-family="sans-serif" font-size="12" lengthAdjust="spacing" textLength="50" x="61" y="62.9102">Consulta</text>
        <line style="stroke:#A80036;stroke-width:1.5;" x1="33" x2="113" y1="74" y2="74"/>
        <line style="stroke:#A80036;stroke-width:1.5;" x1="33" x2="113" y1="82" y2="82"/>
        <!--MD5=[f06e6d820016ea6f9e7dd9049d393810]
class clinicamedica.Especialidades-->
        <rect codeLine="5" fill="#FEFECE" filter="url(#fonvhfwm4zwbu)" height="48" id="clinicamedica.Especialidades" style="stroke:#A80036;stroke-width:1.5;" width="118" x="862" y="42"/>
        <ellipse cx="877" cy="58" fill="#ADD1B2" rx="11" ry="11" style="stroke:#A80036;stroke-width:1.0;"/>
        <path d="M879.7656,53.875 Q879.9219,53.6563 880.1094,53.5469 Q880.2969,53.4375 880.5156,53.4375 Q880.8906,53.4375 881.125,53.6953 Q881.3594,53.9531 881.3594,54.5625 L881.3594,56.0156 Q881.3594,56.625 881.125,56.8906 Q880.8906,57.1563 880.5156,57.1563 Q880.1719,57.1563 879.9688,56.9531 Q879.7656,56.7656 879.6563,56.25 Q879.6094,55.8906 879.4219,55.7031 Q879.0938,55.3281 878.4844,55.1094 Q877.875,54.8906 877.25,54.8906 Q876.4844,54.8906 875.8516,55.2188 Q875.2188,55.5469 874.7266,56.2969 Q874.2344,57.0469 874.2344,58.0781 L874.2344,59.1719 Q874.2344,60.4063 875.125,61.2266 Q876.0156,62.0469 877.6094,62.0469 Q878.5469,62.0469 879.2031,61.7969 Q879.5938,61.6406 880.0156,61.2031 Q880.2813,60.9375 880.4297,60.8594 Q880.5781,60.7813 880.7813,60.7813 Q881.1094,60.7813 881.3672,61.0391 Q881.625,61.2969 881.625,61.6406 Q881.625,61.9844 881.2813,62.3906 Q880.7813,62.9688 879.9844,63.2969 Q878.9063,63.75 877.6094,63.75 Q876.0938,63.75 874.8906,63.125 Q873.9063,62.625 873.2188,61.5547 Q872.5313,60.4844 872.5313,59.2031 L872.5313,58.0469 Q872.5313,56.7188 873.1484,55.5703 Q873.7656,54.4219 874.8594,53.8047 Q875.9531,53.1875 877.1875,53.1875 Q877.9219,53.1875 878.5703,53.3516 Q879.2188,53.5156 879.7656,53.875 Z " fill="#000000"/>
        <text fill="#000000" font-family="sans-serif" font-size="12" lengthAdjust="spacing" textLength="86" x="891" y="62.9102">Especialidades</text>
        <line style="stroke:#A80036;stroke-width:1.5;" x1="863" x2="979" y1="74" y2="74"/>
        <line style="stroke:#A80036;stroke-width:1.5;" x1="863" x2="979" y1="82" y2="82"/>
        <!--MD5=[e3333cac996fa36e6ccb2b8a3e4e95b4]
class clinicamedica.Funcionarios-->
        <rect codeLine="6" fill="#FEFECE" filter="url(#fonvhfwm4zwbu)" height="48" id="clinicamedica.Funcionarios" style="stroke:#A80036;stroke-width:1.5;" width="104" x="577" y="150"/>
        <ellipse cx="592" cy="166" fill="#ADD1B2" rx="11" ry="11" style="stroke:#A80036;stroke-width:1.0;"/>
        <path d="M594.7656,161.875 Q594.9219,161.6563 595.1094,161.5469 Q595.2969,161.4375 595.5156,161.4375 Q595.8906,161.4375 596.125,161.6953 Q596.3594,161.9531 596.3594,162.5625 L596.3594,164.0156 Q596.3594,164.625 596.125,164.8906 Q595.8906,165.1563 595.5156,165.1563 Q595.1719,165.1563 594.9688,164.9531 Q594.7656,164.7656 594.6563,164.25 Q594.6094,163.8906 594.4219,163.7031 Q594.0938,163.3281 593.4844,163.1094 Q592.875,162.8906 592.25,162.8906 Q591.4844,162.8906 590.8516,163.2188 Q590.2188,163.5469 589.7266,164.2969 Q589.2344,165.0469 589.2344,166.0781 L589.2344,167.1719 Q589.2344,168.4063 590.125,169.2266 Q591.0156,170.0469 592.6094,170.0469 Q593.5469,170.0469 594.2031,169.7969 Q594.5938,169.6406 595.0156,169.2031 Q595.2813,168.9375 595.4297,168.8594 Q595.5781,168.7813 595.7813,168.7813 Q596.1094,168.7813 596.3672,169.0391 Q596.625,169.2969 596.625,169.6406 Q596.625,169.9844 596.2813,170.3906 Q595.7813,170.9688 594.9844,171.2969 Q593.9063,171.75 592.6094,171.75 Q591.0938,171.75 589.8906,171.125 Q588.9063,170.625 588.2188,169.5547 Q587.5313,168.4844 587.5313,167.2031 L587.5313,166.0469 Q587.5313,164.7188 588.1484,163.5703 Q588.7656,162.4219 589.8594,161.8047 Q590.9531,161.1875 592.1875,161.1875 Q592.9219,161.1875 593.5703,161.3516 Q594.2188,161.5156 594.7656,161.875 Z " fill="#000000"/>
        <text fill="#000000" font-family="sans-serif" font-size="12" lengthAdjust="spacing" textLength="72" x="606" y="170.9102">Funcionarios</text>
        <line style="stroke:#A80036;stroke-width:1.5;" x1="578" x2="680" y1="182" y2="182"/>
        <line style="stroke:#A80036;stroke-width:1.5;" x1="578" x2="680" y1="190" y2="190"/>
        <!--MD5=[62804844e253d1d6d3d85b45d36ed281]
class clinicamedica.Medicos-->
        <rect codeLine="7" fill="#FEFECE" filter="url(#fonvhfwm4zwbu)" height="48" id="clinicamedica.Medicos" style="stroke:#A80036;stroke-width:1.5;" width="78" x="149" y="42"/>
        <ellipse cx="164" cy="58" fill="#ADD1B2" rx="11" ry="11" style="stroke:#A80036;stroke-width:1.0;"/>
        <path d="M166.7656,53.875 Q166.9219,53.6563 167.1094,53.5469 Q167.2969,53.4375 167.5156,53.4375 Q167.8906,53.4375 168.125,53.6953 Q168.3594,53.9531 168.3594,54.5625 L168.3594,56.0156 Q168.3594,56.625 168.125,56.8906 Q167.8906,57.1563 167.5156,57.1563 Q167.1719,57.1563 166.9688,56.9531 Q166.7656,56.7656 166.6563,56.25 Q166.6094,55.8906 166.4219,55.7031 Q166.0938,55.3281 165.4844,55.1094 Q164.875,54.8906 164.25,54.8906 Q163.4844,54.8906 162.8516,55.2188 Q162.2188,55.5469 161.7266,56.2969 Q161.2344,57.0469 161.2344,58.0781 L161.2344,59.1719 Q161.2344,60.4063 162.125,61.2266 Q163.0156,62.0469 164.6094,62.0469 Q165.5469,62.0469 166.2031,61.7969 Q166.5938,61.6406 167.0156,61.2031 Q167.2813,60.9375 167.4297,60.8594 Q167.5781,60.7813 167.7813,60.7813 Q168.1094,60.7813 168.3672,61.0391 Q168.625,61.2969 168.625,61.6406 Q168.625,61.9844 168.2813,62.3906 Q167.7813,62.9688 166.9844,63.2969 Q165.9063,63.75 164.6094,63.75 Q163.0938,63.75 161.8906,63.125 Q160.9063,62.625 160.2188,61.5547 Q159.5313,60.4844 159.5313,59.2031 L159.5313,58.0469 Q159.5313,56.7188 160.1484,55.5703 Q160.7656,54.4219 161.8594,53.8047 Q162.9531,53.1875 164.1875,53.1875 Q164.9219,53.1875 165.5703,53.3516 Q166.2188,53.5156 166.7656,53.875 Z " fill="#000000"/>
        <text fill="#000000" font-family="sans-serif" font-size="12" lengthAdjust="spacing" textLength="46" x="178" y="62.9102">Medicos</text>
        <line style="stroke:#A80036;stroke-width:1.5;" x1="150" x2="226" y1="74" y2="74"/>
        <line style="stroke:#A80036;stroke-width:1.5;" x1="150" x2="226" y1="82" y2="82"/>
        <!--MD5=[650fe910d690a889c29786dbee513d20]
class clinicamedica.Pacientes-->
        <rect codeLine="8" fill="#FEFECE" filter="url(#fonvhfwm4zwbu)" height="48" id="clinicamedica.Pacientes" style="stroke:#A80036;stroke-width:1.5;" width="87" x="32.5" y="150"/>
        <ellipse cx="47.5" cy="166" fill="#ADD1B2" rx="11" ry="11" style="stroke:#A80036;stroke-width:1.0;"/>
        <path d="M50.2656,161.875 Q50.4219,161.6563 50.6094,161.5469 Q50.7969,161.4375 51.0156,161.4375 Q51.3906,161.4375 51.625,161.6953 Q51.8594,161.9531 51.8594,162.5625 L51.8594,164.0156 Q51.8594,164.625 51.625,164.8906 Q51.3906,165.1563 51.0156,165.1563 Q50.6719,165.1563 50.4688,164.9531 Q50.2656,164.7656 50.1563,164.25 Q50.1094,163.8906 49.9219,163.7031 Q49.5938,163.3281 48.9844,163.1094 Q48.375,162.8906 47.75,162.8906 Q46.9844,162.8906 46.3516,163.2188 Q45.7188,163.5469 45.2266,164.2969 Q44.7344,165.0469 44.7344,166.0781 L44.7344,167.1719 Q44.7344,168.4063 45.625,169.2266 Q46.5156,170.0469 48.1094,170.0469 Q49.0469,170.0469 49.7031,169.7969 Q50.0938,169.6406 50.5156,169.2031 Q50.7813,168.9375 50.9297,168.8594 Q51.0781,168.7813 51.2813,168.7813 Q51.6094,168.7813 51.8672,169.0391 Q52.125,169.2969 52.125,169.6406 Q52.125,169.9844 51.7813,170.3906 Q51.2813,170.9688 50.4844,171.2969 Q49.4063,171.75 48.1094,171.75 Q46.5938,171.75 45.3906,171.125 Q44.4063,170.625 43.7188,169.5547 Q43.0313,168.4844 43.0313,167.2031 L43.0313,166.0469 Q43.0313,164.7188 43.6484,163.5703 Q44.2656,162.4219 45.3594,161.8047 Q46.4531,161.1875 47.6875,161.1875 Q48.4219,161.1875 49.0703,161.3516 Q49.7188,161.5156 50.2656,161.875 Z " fill="#000000"/>
        <text fill="#000000" font-family="sans-serif" font-size="12" lengthAdjust="spacing" textLength="55" x="61.5" y="170.9102">Pacientes</text>
        <line style="stroke:#A80036;stroke-width:1.5;" x1="33.5" x2="118.5" y1="182" y2="182"/>
        <line style="stroke:#A80036;stroke-width:1.5;" x1="33.5" x2="118.5" y1="190" y2="190"/>
        <!--MD5=[def75910650185454fde1b9cf15947b7]
class clinicamedica.Recepcionista-->
        <rect codeLine="9" fill="#FEFECE" filter="url(#fonvhfwm4zwbu)" height="48" id="clinicamedica.Recepcionista" style="stroke:#A80036;stroke-width:1.5;" width="111" x="407.5" y="42"/>
        <ellipse cx="422.5" cy="58" fill="#ADD1B2" rx="11" ry="11" style="stroke:#A80036;stroke-width:1.0;"/>
        <path d="M425.2656,53.875 Q425.4219,53.6563 425.6094,53.5469 Q425.7969,53.4375 426.0156,53.4375 Q426.3906,53.4375 426.625,53.6953 Q426.8594,53.9531 426.8594,54.5625 L426.8594,56.0156 Q426.8594,56.625 426.625,56.8906 Q426.3906,57.1563 426.0156,57.1563 Q425.6719,57.1563 425.4688,56.9531 Q425.2656,56.7656 425.1563,56.25 Q425.1094,55.8906 424.9219,55.7031 Q424.5938,55.3281 423.9844,55.1094 Q423.375,54.8906 422.75,54.8906 Q421.9844,54.8906 421.3516,55.2188 Q420.7188,55.5469 420.2266,56.2969 Q419.7344,57.0469 419.7344,58.0781 L419.7344,59.1719 Q419.7344,60.4063 420.625,61.2266 Q421.5156,62.0469 423.1094,62.0469 Q424.0469,62.0469 424.7031,61.7969 Q425.0938,61.6406 425.5156,61.2031 Q425.7813,60.9375 425.9297,60.8594 Q426.0781,60.7813 426.2813,60.7813 Q426.6094,60.7813 426.8672,61.0391 Q427.125,61.2969 427.125,61.6406 Q427.125,61.9844 426.7813,62.3906 Q426.2813,62.9688 425.4844,63.2969 Q424.4063,63.75 423.1094,63.75 Q421.5938,63.75 420.3906,63.125 Q419.4063,62.625 418.7188,61.5547 Q418.0313,60.4844 418.0313,59.2031 L418.0313,58.0469 Q418.0313,56.7188 418.6484,55.5703 Q419.2656,54.4219 420.3594,53.8047 Q421.4531,53.1875 422.6875,53.1875 Q423.4219,53.1875 424.0703,53.3516 Q424.7188,53.5156 425.2656,53.875 Z " fill="#000000"/>
        <text fill="#000000" font-family="sans-serif" font-size="12" lengthAdjust="spacing" textLength="79" x="436.5" y="62.9102">Recepcionista</text>
        <line style="stroke:#A80036;stroke-width:1.5;" x1="408.5" x2="517.5" y1="74" y2="74"/>
        <line style="stroke:#A80036;stroke-width:1.5;" x1="408.5" x2="517.5" y1="82" y2="82"/>
        <!--MD5=[85a7b441919dabeaf7071a5f827b0982]
class clinicamedica.TesteFuncionario-->
        <rect codeLine="10" fill="#FEFECE" filter="url(#fonvhfwm4zwbu)" height="48" id="clinicamedica.TesteFuncionario" style="stroke:#A80036;stroke-width:1.5;" width="128" x="554" y="42"/>
        <ellipse cx="569" cy="58" fill="#ADD1B2" rx="11" ry="11" style="stroke:#A80036;stroke-width:1.0;"/>
        <path d="M571.7656,53.875 Q571.9219,53.6563 572.1094,53.5469 Q572.2969,53.4375 572.5156,53.4375 Q572.8906,53.4375 573.125,53.6953 Q573.3594,53.9531 573.3594,54.5625 L573.3594,56.0156 Q573.3594,56.625 573.125,56.8906 Q572.8906,57.1563 572.5156,57.1563 Q572.1719,57.1563 571.9688,56.9531 Q571.7656,56.7656 571.6563,56.25 Q571.6094,55.8906 571.4219,55.7031 Q571.0938,55.3281 570.4844,55.1094 Q569.875,54.8906 569.25,54.8906 Q568.4844,54.8906 567.8516,55.2188 Q567.2188,55.5469 566.7266,56.2969 Q566.2344,57.0469 566.2344,58.0781 L566.2344,59.1719 Q566.2344,60.4063 567.125,61.2266 Q568.0156,62.0469 569.6094,62.0469 Q570.5469,62.0469 571.2031,61.7969 Q571.5938,61.6406 572.0156,61.2031 Q572.2813,60.9375 572.4297,60.8594 Q572.5781,60.7813 572.7813,60.7813 Q573.1094,60.7813 573.3672,61.0391 Q573.625,61.2969 573.625,61.6406 Q573.625,61.9844 573.2813,62.3906 Q572.7813,62.9688 571.9844,63.2969 Q570.9063,63.75 569.6094,63.75 Q568.0938,63.75 566.8906,63.125 Q565.9063,62.625 565.2188,61.5547 Q564.5313,60.4844 564.5313,59.2031 L564.5313,58.0469 Q564.5313,56.7188 565.1484,55.5703 Q565.7656,54.4219 566.8594,53.8047 Q567.9531,53.1875 569.1875,53.1875 Q569.9219,53.1875 570.5703,53.3516 Q571.2188,53.5156 571.7656,53.875 Z " fill="#000000"/>
        <text fill="#000000" font-family="sans-serif" font-size="12" lengthAdjust="spacing" textLength="96" x="583" y="62.9102">TesteFuncionario</text>
        <line style="stroke:#A80036;stroke-width:1.5;" x1="555" x2="681" y1="74" y2="74"/>
        <line style="stroke:#A80036;stroke-width:1.5;" x1="555" x2="681" y1="82" y2="82"/>
        <!--MD5=[8c7a28a57fa0e8b55a23cf4c673d8705]
class clinicamedica.TesteInterface-->
        <rect codeLine="11" fill="#FEFECE" filter="url(#fonvhfwm4zwbu)" height="48" id="clinicamedica.TesteInterface" style="stroke:#A80036;stroke-width:1.5;" width="110" x="262" y="42"/>
        <ellipse cx="277" cy="58" fill="#ADD1B2" rx="11" ry="11" style="stroke:#A80036;stroke-width:1.0;"/>
        <path d="M279.7656,53.875 Q279.9219,53.6563 280.1094,53.5469 Q280.2969,53.4375 280.5156,53.4375 Q280.8906,53.4375 281.125,53.6953 Q281.3594,53.9531 281.3594,54.5625 L281.3594,56.0156 Q281.3594,56.625 281.125,56.8906 Q280.8906,57.1563 280.5156,57.1563 Q280.1719,57.1563 279.9688,56.9531 Q279.7656,56.7656 279.6563,56.25 Q279.6094,55.8906 279.4219,55.7031 Q279.0938,55.3281 278.4844,55.1094 Q277.875,54.8906 277.25,54.8906 Q276.4844,54.8906 275.8516,55.2188 Q275.2188,55.5469 274.7266,56.2969 Q274.2344,57.0469 274.2344,58.0781 L274.2344,59.1719 Q274.2344,60.4063 275.125,61.2266 Q276.0156,62.0469 277.6094,62.0469 Q278.5469,62.0469 279.2031,61.7969 Q279.5938,61.6406 280.0156,61.2031 Q280.2813,60.9375 280.4297,60.8594 Q280.5781,60.7813 280.7813,60.7813 Q281.1094,60.7813 281.3672,61.0391 Q281.625,61.2969 281.625,61.6406 Q281.625,61.9844 281.2813,62.3906 Q280.7813,62.9688 279.9844,63.2969 Q278.9063,63.75 277.6094,63.75 Q276.0938,63.75 274.8906,63.125 Q273.9063,62.625 273.2188,61.5547 Q272.5313,60.4844 272.5313,59.2031 L272.5313,58.0469 Q272.5313,56.7188 273.1484,55.5703 Q273.7656,54.4219 274.8594,53.8047 Q275.9531,53.1875 277.1875,53.1875 Q277.9219,53.1875 278.5703,53.3516 Q279.2188,53.5156 279.7656,53.875 Z " fill="#000000"/>
        <text fill="#000000" font-family="sans-serif" font-size="12" lengthAdjust="spacing" textLength="78" x="291" y="62.9102">TesteInterface</text>
        <line style="stroke:#A80036;stroke-width:1.5;" x1="263" x2="371" y1="74" y2="74"/>
        <line style="stroke:#A80036;stroke-width:1.5;" x1="263" x2="371" y1="82" y2="82"/>
        <!--MD5=[022c2b50b150ba6edd8d8941910fdf2d]
class clinicamedica.TesteReferencia-->
        <rect codeLine="12" fill="#FEFECE" filter="url(#fonvhfwm4zwbu)" height="48" id="clinicamedica.TesteReferencia" style="stroke:#A80036;stroke-width:1.5;" width="123" x="154.5" y="150"/>
        <ellipse cx="169.5" cy="166" fill="#ADD1B2" rx="11" ry="11" style="stroke:#A80036;stroke-width:1.0;"/>
        <path d="M172.2656,161.875 Q172.4219,161.6563 172.6094,161.5469 Q172.7969,161.4375 173.0156,161.4375 Q173.3906,161.4375 173.625,161.6953 Q173.8594,161.9531 173.8594,162.5625 L173.8594,164.0156 Q173.8594,164.625 173.625,164.8906 Q173.3906,165.1563 173.0156,165.1563 Q172.6719,165.1563 172.4688,164.9531 Q172.2656,164.7656 172.1563,164.25 Q172.1094,163.8906 171.9219,163.7031 Q171.5938,163.3281 170.9844,163.1094 Q170.375,162.8906 169.75,162.8906 Q168.9844,162.8906 168.3516,163.2188 Q167.7188,163.5469 167.2266,164.2969 Q166.7344,165.0469 166.7344,166.0781 L166.7344,167.1719 Q166.7344,168.4063 167.625,169.2266 Q168.5156,170.0469 170.1094,170.0469 Q171.0469,170.0469 171.7031,169.7969 Q172.0938,169.6406 172.5156,169.2031 Q172.7813,168.9375 172.9297,168.8594 Q173.0781,168.7813 173.2813,168.7813 Q173.6094,168.7813 173.8672,169.0391 Q174.125,169.2969 174.125,169.6406 Q174.125,169.9844 173.7813,170.3906 Q173.2813,170.9688 172.4844,171.2969 Q171.4063,171.75 170.1094,171.75 Q168.5938,171.75 167.3906,171.125 Q166.4063,170.625 165.7188,169.5547 Q165.0313,168.4844 165.0313,167.2031 L165.0313,166.0469 Q165.0313,164.7188 165.6484,163.5703 Q166.2656,162.4219 167.3594,161.8047 Q168.4531,161.1875 169.6875,161.1875 Q170.4219,161.1875 171.0703,161.3516 Q171.7188,161.5156 172.2656,161.875 Z " fill="#000000"/>
        <text fill="#000000" font-family="sans-serif" font-size="12" lengthAdjust="spacing" textLength="91" x="183.5" y="170.9102">TesteReferencia</text>
        <line style="stroke:#A80036;stroke-width:1.5;" x1="155.5" x2="276.5" y1="182" y2="182"/>
        <line style="stroke:#A80036;stroke-width:1.5;" x1="155.5" x2="276.5" y1="190" y2="190"/>
        <!--MD5=[75ff68d1159f090c80d223bcbc0199fc]
class clinicamedica.Pagavel-->
        <rect codeLine="16" fill="#FEFECE" filter="url(#fonvhfwm4zwbu)" height="48" id="clinicamedica.Pagavel" style="stroke:#A80036;stroke-width:1.5;" width="77" x="882.5" y="150"/>
        <ellipse cx="897.5" cy="166" fill="#B4A7E5" rx="11" ry="11" style="stroke:#A80036;stroke-width:1.0;"/>
        <path d="M898.4531,162.6406 L898.4531,169.2969 L900.1719,169.2969 Q900.7813,169.2969 901.0469,169.5313 Q901.3125,169.7656 901.3125,170.1563 Q901.3125,170.5313 901.0469,170.7656 Q900.7813,171 900.1719,171 L895.0313,171 Q894.4219,171 894.1563,170.7656 Q893.8906,170.5313 893.8906,170.1406 Q893.8906,169.7656 894.1563,169.5313 Q894.4219,169.2969 895.0313,169.2969 L896.75,169.2969 L896.75,162.6406 L895.0313,162.6406 Q894.4219,162.6406 894.1563,162.4063 Q893.8906,162.1719 893.8906,161.7813 Q893.8906,161.4063 894.1563,161.1719 Q894.4219,160.9375 895.0313,160.9375 L900.1719,160.9375 Q900.7813,160.9375 901.0469,161.1719 Q901.3125,161.4063 901.3125,161.7813 Q901.3125,162.1719 901.0469,162.4063 Q900.7813,162.6406 900.1719,162.6406 L898.4531,162.6406 Z " fill="#000000"/>
        <text fill="#000000" font-family="sans-serif" font-size="12" font-style="italic" lengthAdjust="spacing" textLength="45" x="911.5" y="170.9102">Pagavel</text>
        <line style="stroke:#A80036;stroke-width:1.5;" x1="883.5" x2="958.5" y1="182" y2="182"/>
        <line style="stroke:#A80036;stroke-width:1.5;" x1="883.5" x2="958.5" y1="190" y2="190"/>
        <!--MD5=[3c78a2fa643d9223b1f8ad930e883961]
class java.lang.Override-->
        <rect codeLine="2" fill="#FEFECE" filter="url(#fonvhfwm4zwbu)" height="48" id="java.lang.Override" style="stroke:#A80036;stroke-width:1.5;" width="78" x="1330" y="274"/>
        <ellipse cx="1345" cy="290" fill="#E3664A" rx="11" ry="11" style="stroke:#A80036;stroke-width:1.0;"/>
        <path d="M1347.3438,287.5781 L1347.3438,287.0625 Q1347.3438,286.2344 1346.8672,285.7344 Q1346.3906,285.2344 1345.6406,285.2344 Q1345.0469,285.2344 1344.5156,285.6328 Q1343.9844,286.0313 1343.7188,286.6563 Q1343.25,287.75 1343.25,288.8594 L1343.25,291.375 Q1343.25,293.2969 1344.1094,294.4219 Q1344.6719,295.1719 1345.6875,295.1719 Q1346.2344,295.1719 1346.6797,295.0313 Q1347.125,294.8906 1347.375,294.6406 Q1347.625,294.3906 1347.8438,294.3906 Q1348.1094,294.3906 1348.2969,294.5781 Q1348.4844,294.7656 1348.4844,295.0313 Q1348.4844,295.4531 1347.9063,295.8438 Q1347.0781,296.4063 1345.6406,296.4063 Q1344.5469,296.4063 1343.8281,295.9063 Q1342.9063,295.2656 1342.4531,294 Q1342,292.7344 1342,291.5 L1342,288.7656 Q1342,286.7813 1342.9844,285.3828 Q1343.9688,283.9844 1345.6094,283.9844 Q1346.3594,283.9844 1347.0078,284.2891 Q1347.6563,284.5938 1348.125,285.3594 Q1348.5938,286.125 1348.5938,287.0625 L1348.5938,291.5938 Q1348.9531,291.7656 1348.9531,292.1563 Q1348.9531,292.4375 1348.7578,292.6172 Q1348.5625,292.7969 1348.0938,292.7969 L1347.3438,292.7969 L1347.3438,292.75 Q1346.9531,292.8125 1346.7656,292.8125 Q1345.7656,292.8125 1345.0234,292.0703 Q1344.2813,291.3281 1344.2813,290.3281 Q1344.2813,289.2656 1345.1016,288.4688 Q1345.9219,287.6719 1347.3438,287.5781 Z M1347.3438,288.8594 Q1346.4531,288.9531 1345.9922,289.375 Q1345.5313,289.7969 1345.5313,290.3438 Q1345.5313,290.8281 1345.9141,291.1719 Q1346.2969,291.5156 1346.9375,291.5156 Q1347.0625,291.5156 1347.3438,291.5 L1347.3438,288.8594 Z " fill="#000000"/>
        <text fill="#000000" font-family="sans-serif" font-size="12" lengthAdjust="spacing" textLength="46" x="1359" y="294.9102">Override</text>
        <line style="stroke:#A80036;stroke-width:1.5;" x1="1331" x2="1407" y1="306" y2="306"/>
        <line style="stroke:#A80036;stroke-width:1.5;" x1="1331" x2="1407" y1="314" y2="314"/>
        <!--MD5=[8479184e23c2bec09445fccfd361f5d2]
class java.util.ArrayList-->
        <rect codeLine="13" fill="#FEFECE" filter="url(#fonvhfwm4zwbu)" height="48" id="java.util.ArrayList" style="stroke:#A80036;stroke-width:1.5;" width="79" x="1123.5" y="150"/>
        <ellipse cx="1138.5" cy="166" fill="#ADD1B2" rx="11" ry="11" style="stroke:#A80036;stroke-width:1.0;"/>
        <path d="M1141.2656,161.875 Q1141.4219,161.6563 1141.6094,161.5469 Q1141.7969,161.4375 1142.0156,161.4375 Q1142.3906,161.4375 1142.625,161.6953 Q1142.8594,161.9531 1142.8594,162.5625 L1142.8594,164.0156 Q1142.8594,164.625 1142.625,164.8906 Q1142.3906,165.1563 1142.0156,165.1563 Q1141.6719,165.1563 1141.4688,164.9531 Q1141.2656,164.7656 1141.1563,164.25 Q1141.1094,163.8906 1140.9219,163.7031 Q1140.5938,163.3281 1139.9844,163.1094 Q1139.375,162.8906 1138.75,162.8906 Q1137.9844,162.8906 1137.3516,163.2188 Q1136.7188,163.5469 1136.2266,164.2969 Q1135.7344,165.0469 1135.7344,166.0781 L1135.7344,167.1719 Q1135.7344,168.4063 1136.625,169.2266 Q1137.5156,170.0469 1139.1094,170.0469 Q1140.0469,170.0469 1140.7031,169.7969 Q1141.0938,169.6406 1141.5156,169.2031 Q1141.7813,168.9375 1141.9297,168.8594 Q1142.0781,168.7813 1142.2813,168.7813 Q1142.6094,168.7813 1142.8672,169.0391 Q1143.125,169.2969 1143.125,169.6406 Q1143.125,169.9844 1142.7813,170.3906 Q1142.2813,170.9688 1141.4844,171.2969 Q1140.4063,171.75 1139.1094,171.75 Q1137.5938,171.75 1136.3906,171.125 Q1135.4063,170.625 1134.7188,169.5547 Q1134.0313,168.4844 1134.0313,167.2031 L1134.0313,166.0469 Q1134.0313,164.7188 1134.6484,163.5703 Q1135.2656,162.4219 1136.3594,161.8047 Q1137.4531,161.1875 1138.6875,161.1875 Q1139.4219,161.1875 1140.0703,161.3516 Q1140.7188,161.5156 1141.2656,161.875 Z " fill="#000000"/>
        <text fill="#000000" font-family="sans-serif" font-size="12" lengthAdjust="spacing" textLength="47" x="1152.5" y="170.9102">ArrayList</text>
        <line style="stroke:#A80036;stroke-width:1.5;" x1="1124.5" x2="1201.5" y1="182" y2="182"/>
        <line style="stroke:#A80036;stroke-width:1.5;" x1="1124.5" x2="1201.5" y1="190" y2="190"/>
        <!--MD5=[6b7a9fc05e2cf62df8c1411c2048df3f]
class java.util.List-->
        <rect codeLine="14" fill="#FEFECE" filter="url(#fonvhfwm4zwbu)" height="48" id="java.util.List" style="stroke:#A80036;stroke-width:1.5;" width="52" x="1036" y="150"/>
        <ellipse cx="1051" cy="166" fill="#ADD1B2" rx="11" ry="11" style="stroke:#A80036;stroke-width:1.0;"/>
        <path d="M1053.7656,161.875 Q1053.9219,161.6563 1054.1094,161.5469 Q1054.2969,161.4375 1054.5156,161.4375 Q1054.8906,161.4375 1055.125,161.6953 Q1055.3594,161.9531 1055.3594,162.5625 L1055.3594,164.0156 Q1055.3594,164.625 1055.125,164.8906 Q1054.8906,165.1563 1054.5156,165.1563 Q1054.1719,165.1563 1053.9688,164.9531 Q1053.7656,164.7656 1053.6563,164.25 Q1053.6094,163.8906 1053.4219,163.7031 Q1053.0938,163.3281 1052.4844,163.1094 Q1051.875,162.8906 1051.25,162.8906 Q1050.4844,162.8906 1049.8516,163.2188 Q1049.2188,163.5469 1048.7266,164.2969 Q1048.2344,165.0469 1048.2344,166.0781 L1048.2344,167.1719 Q1048.2344,168.4063 1049.125,169.2266 Q1050.0156,170.0469 1051.6094,170.0469 Q1052.5469,170.0469 1053.2031,169.7969 Q1053.5938,169.6406 1054.0156,169.2031 Q1054.2813,168.9375 1054.4297,168.8594 Q1054.5781,168.7813 1054.7813,168.7813 Q1055.1094,168.7813 1055.3672,169.0391 Q1055.625,169.2969 1055.625,169.6406 Q1055.625,169.9844 1055.2813,170.3906 Q1054.7813,170.9688 1053.9844,171.2969 Q1052.9063,171.75 1051.6094,171.75 Q1050.0938,171.75 1048.8906,171.125 Q1047.9063,170.625 1047.2188,169.5547 Q1046.5313,168.4844 1046.5313,167.2031 L1046.5313,166.0469 Q1046.5313,164.7188 1047.1484,163.5703 Q1047.7656,162.4219 1048.8594,161.8047 Q1049.9531,161.1875 1051.1875,161.1875 Q1051.9219,161.1875 1052.5703,161.3516 Q1053.2188,161.5156 1053.7656,161.875 Z " fill="#000000"/>
        <text fill="#000000" font-family="sans-serif" font-size="12" lengthAdjust="spacing" textLength="20" x="1065" y="170.9102">List</text>
        <line style="stroke:#A80036;stroke-width:1.5;" x1="1037" x2="1087" y1="182" y2="182"/>
        <line style="stroke:#A80036;stroke-width:1.5;" x1="1037" x2="1087" y1="190" y2="190"/>
        <!--MD5=[28e8da24617c3e7f8b010c1b590508e8]
class java.util.Scanner-->
        <rect codeLine="15" fill="#FEFECE" filter="url(#fonvhfwm4zwbu)" height="48" id="java.util.Scanner" style="stroke:#A80036;stroke-width:1.5;" width="78" x="1238" y="150"/>
        <ellipse cx="1253" cy="166" fill="#ADD1B2" rx="11" ry="11" style="stroke:#A80036;stroke-width:1.0;"/>
        <path d="M1255.7656,161.875 Q1255.9219,161.6563 1256.1094,161.5469 Q1256.2969,161.4375 1256.5156,161.4375 Q1256.8906,161.4375 1257.125,161.6953 Q1257.3594,161.9531 1257.3594,162.5625 L1257.3594,164.0156 Q1257.3594,164.625 1257.125,164.8906 Q1256.8906,165.1563 1256.5156,165.1563 Q1256.1719,165.1563 1255.9688,164.9531 Q1255.7656,164.7656 1255.6563,164.25 Q1255.6094,163.8906 1255.4219,163.7031 Q1255.0938,163.3281 1254.4844,163.1094 Q1253.875,162.8906 1253.25,162.8906 Q1252.4844,162.8906 1251.8516,163.2188 Q1251.2188,163.5469 1250.7266,164.2969 Q1250.2344,165.0469 1250.2344,166.0781 L1250.2344,167.1719 Q1250.2344,168.4063 1251.125,169.2266 Q1252.0156,170.0469 1253.6094,170.0469 Q1254.5469,170.0469 1255.2031,169.7969 Q1255.5938,169.6406 1256.0156,169.2031 Q1256.2813,168.9375 1256.4297,168.8594 Q1256.5781,168.7813 1256.7813,168.7813 Q1257.1094,168.7813 1257.3672,169.0391 Q1257.625,169.2969 1257.625,169.6406 Q1257.625,169.9844 1257.2813,170.3906 Q1256.7813,170.9688 1255.9844,171.2969 Q1254.9063,171.75 1253.6094,171.75 Q1252.0938,171.75 1250.8906,171.125 Q1249.9063,170.625 1249.2188,169.5547 Q1248.5313,168.4844 1248.5313,167.2031 L1248.5313,166.0469 Q1248.5313,164.7188 1249.1484,163.5703 Q1249.7656,162.4219 1250.8594,161.8047 Q1251.9531,161.1875 1253.1875,161.1875 Q1253.9219,161.1875 1254.5703,161.3516 Q1255.2188,161.5156 1255.7656,161.875 Z " fill="#000000"/>
        <text fill="#000000" font-family="sans-serif" font-size="12" lengthAdjust="spacing" textLength="46" x="1267" y="170.9102">Scanner</text>
        <line style="stroke:#A80036;stroke-width:1.5;" x1="1239" x2="1315" y1="182" y2="182"/>
        <line style="stroke:#A80036;stroke-width:1.5;" x1="1239" x2="1315" y1="190" y2="190"/>
        <!--MD5=[ac4b61060cac6c0a4a99604447c74eda]
link clinicamedica.ClinicaMedica to java.util.Scanner-->
        <path codeLine="17" d="M826.65,86.12 C832.46,87.65 838.32,88.99 844,90 C885.17,97.32 1182.42,87.65 1220,106 C1237.41,114.5 1251.57,131.03 1261.41,145.55 " fill="none" id="clinicamedica.ClinicaMedica-to-java.util.Scanner" style="stroke:#A80036;stroke-width:1.0;stroke-dasharray:7.0,7.0;"/>
        <polygon fill="#A80036" points="1264.33,149.98,1262.7276,140.2624,1261.583,145.8022,1256.0431,144.6576,1264.33,149.98" style="stroke:#A80036;stroke-width:1.0;"/>
        <!--MD5=[fe74873e00b2c8c1d9d0710f7e304f64]
link clinicamedica.Especialidades to java.lang.Override-->
        <path codeLine="18" d="M980.08,67.49 C1100.93,69.1 1367.41,76.05 1395,106 C1436.15,150.68 1405.88,228.01 1384.78,269.24 " fill="none" id="clinicamedica.Especialidades-to-java.lang.Override" style="stroke:#A80036;stroke-width:1.0;stroke-dasharray:7.0,7.0;"/>
        <polygon fill="#A80036" points="1382.38,273.84,1390.0935,267.7161,1384.6958,269.4086,1383.0033,264.0109,1382.38,273.84" style="stroke:#A80036;stroke-width:1.0;"/>
        <!--MD5=[5deca0ec86837c5a9f247558e7ef6463]
link clinicamedica.Especialidades to clinicamedica.Pagavel-->
        <path codeLine="19" d="M921,90 C921,101.59 921,116.03 921,129.6 " fill="none" id="clinicamedica.Especialidades-to-clinicamedica.Pagavel" style="stroke:#A80036;stroke-width:1.0;"/>
        <polygon fill="none" points="928,129.68,921,149.68,914,129.68,928,129.68" style="stroke:#A80036;stroke-width:1.0;"/>
        <!--MD5=[e1db2b14b55fd7c5f2f0ee15ff71825b]
link clinicamedica.Funcionarios to clinicamedica.Cargos-->
        <path codeLine="20" d="M629,198.23 C629,213.92 629,235.1 629,253.83 " fill="none" id="clinicamedica.Funcionarios-to-clinicamedica.Cargos" style="stroke:#A80036;stroke-width:1.0;"/>
        <polygon fill="none" points="636,253.85,629,273.85,622,253.85,636,253.85" style="stroke:#A80036;stroke-width:1.0;"/>
        <!--MD5=[c3503d957b2d988b7ad01c6abe87b2af]
link clinicamedica.Funcionarios to java.lang.Override-->
        <path codeLine="21" d="M681.15,187.5 C728.75,198.41 801.2,213.74 865,222 C922.85,229.49 938.08,223.05 996,230 C1115.53,244.34 1254.76,272.41 1324.45,287.26 " fill="none" id="clinicamedica.Funcionarios-to-java.lang.Override" style="stroke:#A80036;stroke-width:1.0;stroke-dasharray:7.0,7.0;"/>
        <polygon fill="#A80036" points="1329.75,288.39,1321.7798,282.6041,1324.8595,287.3492,1320.1145,290.4289,1329.75,288.39" style="stroke:#A80036;stroke-width:1.0;"/>
        <!--MD5=[6f6fc4f1f200b899e75fac8c21e4acca]
link clinicamedica.Recepcionista to java.lang.Override-->
        <path codeLine="22" d="M518.8,86.35 C524.56,87.81 530.36,89.07 536,90 C557.82,93.58 1315.08,91.76 1332,106 C1379.18,145.72 1377.88,225.93 1373.26,268.68 " fill="none" id="clinicamedica.Recepcionista-to-java.lang.Override" style="stroke:#A80036;stroke-width:1.0;stroke-dasharray:7.0,7.0;"/>
        <polygon fill="#A80036" points="1372.68,273.7,1377.6816,265.2156,1373.251,268.7327,1369.7339,264.3021,1372.68,273.7" style="stroke:#A80036;stroke-width:1.0;"/>
        <!--MD5=[0bb37641c058282cf42ad7dad0625dff]
link clinicamedica.Recepcionista to clinicamedica.Funcionarios-->
        <path codeLine="23" d="M499.02,90 C521.46,104.33 550.72,123.02 575.8,139.03 " fill="none" id="clinicamedica.Recepcionista-to-clinicamedica.Funcionarios" style="stroke:#A80036;stroke-width:1.0;"/>
        <polygon fill="none" points="579.68,133.2,592.76,149.86,572.14,145,579.68,133.2" style="stroke:#A80036;stroke-width:1.0;"/>
        <!--MD5=[0fee680fd8d6c6c4bfd5de5aab23a7a0]
link clinicamedica.TesteFuncionario to java.util.Scanner-->
        <path codeLine="24" d="M682.13,86.58 C688.13,87.93 694.15,89.1 700,90 C757.14,98.76 1167.91,80.94 1220,106 C1237.46,114.4 1251.62,130.93 1261.45,145.47 " fill="none" id="clinicamedica.TesteFuncionario-to-java.util.Scanner" style="stroke:#A80036;stroke-width:1.0;stroke-dasharray:7.0,7.0;"/>
        <polygon fill="#A80036" points="1264.36,149.91,1262.7576,140.1924,1261.613,145.7322,1256.0731,144.5876,1264.36,149.91" style="stroke:#A80036;stroke-width:1.0;"/>
        <!--MD5=[1e57bc2c9fdb1cfc8ce7b2534ffc09fe]
link clinicamedica.TesteInterface to java.util.ArrayList-->
        <path codeLine="25" d="M372,86.13 C378.02,87.68 384.1,89.02 390,90 C429.2,96.48 1069.05,89.08 1105,106 C1122.66,114.31 1137.06,130.84 1147.1,145.4 " fill="none" id="clinicamedica.TesteInterface-to-java.util.ArrayList" style="stroke:#A80036;stroke-width:1.0;stroke-dasharray:7.0,7.0;"/>
        <polygon fill="#A80036" points="1150.07,149.85,1148.4059,140.1427,1147.2965,145.6897,1141.7495,144.5803,1150.07,149.85" style="stroke:#A80036;stroke-width:1.0;"/>
        <!--MD5=[879ada17af90cc59dc69439ebdad4070]
link clinicamedica.TesteInterface to java.util.List-->
        <path codeLine="26" d="M372.01,86.11 C378.02,87.66 384.1,89.01 390,90 C456.43,101.12 934.22,79.17 996,106 C1015.17,114.32 1031.66,131.07 1043.37,145.73 " fill="none" id="clinicamedica.TesteInterface-to-java.util.List" style="stroke:#A80036;stroke-width:1.0;stroke-dasharray:7.0,7.0;"/>
        <polygon fill="#A80036" points="1046.54,149.81,1044.1648,140.2519,1043.4673,145.8655,1037.8536,145.1681,1046.54,149.81" style="stroke:#A80036;stroke-width:1.0;"/>
        <!--MD5=[83dfaa21c2ed26db95858fd701ed58db]
link clinicamedica.TesteInterface to java.util.Scanner-->
        <path codeLine="27" d="M372.4,86.25 C378.29,87.76 384.23,89.06 390,90 C435.51,97.45 1178.32,86.25 1220,106 C1237.51,114.3 1251.66,130.83 1261.49,145.39 " fill="none" id="clinicamedica.TesteInterface-to-java.util.Scanner" style="stroke:#A80036;stroke-width:1.0;stroke-dasharray:7.0,7.0;"/>
        <polygon fill="#A80036" points="1264.4,149.84,1262.8361,140.1161,1261.6695,145.6514,1256.1343,144.4849,1264.4,149.84" style="stroke:#A80036;stroke-width:1.0;"/>
        <!--MD5=[9088d91757c34e115c0376b795cd8b1f]
link clinicamedica.Consulta to clinicamedica.Medicos-->
        <!--MD5=[4d25959581e0a7a31135d6315d71244c]
link clinicamedica.Consulta to clinicamedica.Pacientes-->
        <!--MD5=[ccb70396e5c7800097daaa91912dacc9]
link clinicamedica.Pacientes to clinicamedica.TesteReferencia-->
        <!--MD5=[bf8f07aec6da8dcc00f1c914c5daa8a0]
@startuml
abstract class clinicamedica.Cargos
annotation java.lang.Override
class clinicamedica.ClinicaMedica
class clinicamedica.Consulta
class clinicamedica.Especialidades
class clinicamedica.Funcionarios
class clinicamedica.Medicos
class clinicamedica.Pacientes
class clinicamedica.Recepcionista
class clinicamedica.TesteFuncionario
class clinicamedica.TesteInterface
class clinicamedica.TesteReferencia
class java.util.ArrayList
class java.util.List
class java.util.Scanner
interface clinicamedica.Pagavel
clinicamedica.ClinicaMedica ..> java.util.Scanner
clinicamedica.Especialidades ..> java.lang.Override
clinicamedica.Especialidades - -|> clinicamedica.Pagavel
clinicamedica.Funcionarios - -|> clinicamedica.Cargos
clinicamedica.Funcionarios ..> java.lang.Override
clinicamedica.Recepcionista ..> java.lang.Override
clinicamedica.Recepcionista - -|> clinicamedica.Funcionarios
clinicamedica.TesteFuncionario ..> java.util.Scanner
clinicamedica.TesteInterface ..> java.util.ArrayList
clinicamedica.TesteInterface ..> java.util.List
clinicamedica.TesteInterface ..> java.util.Scanner
@enduml

PlantUML version 1.2021.3(Mon Mar 22 13:53:19 BRT 2021)
(GPL source distribution)
Java Runtime: Java(TM) SE Runtime Environment
JVM: Java HotSpot(TM) 64-Bit Server VM
Default Encoding: Cp1252
Language: pt
Country: BR
-->
    </g>
</svg>
